<?xml version="1.0" encoding="UTF-8" standalone="no"?>
<svg
   xmlns:dc="http://purl.org/dc/elements/1.1/"
   xmlns:cc="http://creativecommons.org/ns#"
   xmlns:rdf="http://www.w3.org/1999/02/22-rdf-syntax-ns#"
   xmlns:svg="http://www.w3.org/2000/svg"
   xmlns="http://www.w3.org/2000/svg"
   height="810.60956"
   width="396.76199"
   xml:space="preserve"
   viewBox="0 0 396.76199 810.60956"
   y="0px"
   x="0px"
   id="Режим_изоляции"
   version="1.1"><metadata
   id="metadata348"><rdf:RDF><cc:Work
       rdf:about=""><dc:format>image/svg+xml</dc:format><dc:type
         rdf:resource="http://purl.org/dc/dcmitype/StillImage" /><dc:title></dc:title></cc:Work></rdf:RDF></metadata><defs
   id="defs346" />
<g
   transform="translate(-163.351,-105.44342)"
   id="g341">
	<g
   id="g8">
		<rect
   id="rect2"
   height="10.119"
   width="396.76199"
   style="opacity:0.42000002;fill:#dee6de"
   y="896.93903"
   x="163.351" />
		<rect
   id="rect4"
   height="8.9940004"
   width="274.86899"
   style="opacity:0.42000002;fill:#dee6de"
   y="887.94501"
   x="223.078" />
		<rect
   id="rect6"
   height="8.9949999"
   width="308.38901"
   style="opacity:0.42000002;fill:#dee6de"
   y="907.05798"
   x="204.185" />
	</g>
	<g
   id="g157">
		
			<linearGradient
   gradientTransform="matrix(0.99,-0.007,-0.0618,1.0106,26.5839,1.7678)"
   y2="479.01089"
   x2="390.17111"
   y1="479.01089"
   x1="359.1868"
   gradientUnits="userSpaceOnUse"
   id="SVGID_1_">
			<stop
   id="stop10"
   style="stop-color:#FFB375"
   offset="0" />
			<stop
   id="stop12"
   style="stop-color:#F2C97A"
   offset="1" />
		</linearGradient>
		<polygon
   id="polygon15"
   points="352.821,479.337 353.225,507.722 366.244,504.719 363.969,495.272 371.593,487.211 374.177,479.914 383.985,471.109 379.035,458.771 364.011,471.251 "
   style="fill:url(#SVGID_1_)" />
		<polygon
   id="polygon17"
   points="183.818,245.381 212.705,238.808 225.315,304.743 201.896,308.346 "
   style="fill:#4d4d4d" />
		<polygon
   id="polygon19"
   points="211.624,238.808 214.326,239.169 226.396,304.382 224.414,305.103 "
   style="fill:#3e3e3e" />
		
			<linearGradient
   gradientTransform="matrix(0.9812,-0.2164,-0.145,-0.987,62.1356,899.3404)"
   y2="458.87491"
   x2="246.4119"
   y1="591.90808"
   x1="225.57539"
   gradientUnits="userSpaceOnUse"
   id="SVGID_2_">
			<stop
   id="stop21"
   style="stop-color:#FFB375"
   offset="0" />
			<stop
   id="stop23"
   style="stop-color:#F2C97A"
   offset="1" />
		</linearGradient>
		<polygon
   id="polygon26"
   points="219.955,313.434 216.801,308.953 214.506,291.772 221.532,284.386 218.574,276.478 206.687,277.947 208.471,274.478 206.309,271.775 191.372,282.099 190.566,298.49 195.055,305.805 201.562,319.384 207.084,335.102 212.087,370.558 228.172,364.758 218.918,323.365 "
   style="fill:url(#SVGID_2_)" />
		<path
   id="path28"
   d="m 253.132,895.11 c -15.333,-1.104 -7.203,2.487 -20.518,-0.938 5.527,-127.235 11.307,-166.962 11.307,-166.962 l 5.622,-155.157 6.183,-69.147 c 0,0 2.823,7.186 35.923,13.036 26.136,4.622 65.829,5.515 65.829,5.515 l 2.07,61.521 -3.195,155.475 -10.119,155.907 c 0,0 -1.313,2.999 -16.49,2.999 -1.366,-31.828 -9.691,-228.312 -19.917,-317.983 l -11.939,1.672 c -15.741,80.951 -27.517,185.889 -44.756,314.062 z"
   style="fill:#383623" />
		<path
   id="path30"
   d="m 396.22,310.251 c -2.168,-6.099 -8.061,-21.233 -14.516,-25.009 l -54.605,-22.474 -37.471,14.952 c 0,0 -23.237,9.386 -29.682,17.759 -16.992,43.939 -16.123,53.796 -26.063,76.431 -1.78,-4.4 -4.694,-15.998 -11.454,-37.966 -3.769,2.497 -9.972,4.23 -16.651,7.414 4.623,21.937 11.172,109.284 29.761,85.132 18.39,-20.875 32.194,-65.92 31.994,-62.643 1.564,32.744 -3.091,69.283 -14.167,135.232 -1.028,6.133 -5.375,13.303 -6.048,20.107 -2.022,20.385 29.476,22.606 60.663,20.769 20.801,-1.228 41.887,-1.203 51.236,-10.018 8.929,-1.859 0.607,-16.063 0.729,-21.016 1.635,-67.487 7.16,-104.331 11.053,-131.615 0,0 4.597,-22.715 4.412,-19.685 4.761,6.699 31.055,43.18 32.644,52.176 0.971,10.366 -36.041,53.028 -36.041,53.028 l 10.701,11.57 c 0,0 51.308,-38.316 51.354,-64.418 -6.758,-38.167 -31.458,-81.756 -37.849,-99.726 z"
   style="fill:#baa757" />
		<path
   id="path32"
   d="m 253.355,889.377 -0.382,11.157 -30.408,1.163 c 0,0 -2.903,-3.204 1.452,-7.185 2.949,-2.697 9.086,-8.398 9.086,-8.398 z"
   style="fill:#212121" />
		<path
   id="path34"
   d="m 330.118,889.862 -0.75,11.244 27.924,0.592 c 0,0 2.293,-0.733 -2.065,-4.715 -2.949,-2.697 -7.119,-10.493 -7.119,-10.493 z"
   style="fill:#212121" />
		<path
   id="path36"
   d="m 268.793,360.506 c -0.504,0.004 -0.941,-0.345 -1.028,-0.867 l -2.179,-12.857 c -0.103,-0.611 0.303,-1.224 0.911,-1.373 0.595,-0.147 1.182,0.227 1.288,0.838 l 2.181,12.856 c 0.102,0.609 -0.306,1.224 -0.913,1.371 -0.087,0.023 -0.175,0.032 -0.26,0.032 z"
   style="fill:#ad974e" />
		<path
   id="path38"
   d="m 322.625,317.179 c -2.048,0.014 -4.166,-0.125 -6.354,-0.44 -30.624,-4.396 -32.872,-35.265 -32.89,-35.577 -0.036,-0.622 0.429,-1.191 1.044,-1.275 0.626,-0.082 1.14,0.357 1.183,0.977 0.074,1.201 2.185,29.469 31.121,33.624 32.987,4.737 49.232,-32.56 49.392,-32.937 0.25,-0.589 0.914,-0.892 1.471,-0.678 0.564,0.214 0.818,0.867 0.567,1.457 -0.155,0.37 -15.085,34.633 -45.534,34.849 z"
   style="fill:#ad974e" />
		<path
   id="path40"
   d="m 295.753,274.838 32.409,-12.951 28.825,12.533 c 0,0 -4.179,26.929 -34.807,27.146 -21.707,0.156 -26.427,-26.728 -26.427,-26.728 z"
   style="fill:#f9f9f5" />
		
			<linearGradient
   gradientTransform="matrix(-0.99,0.1626,0.091,0.9953,1439.7477,-82.7288)"
   y2="181.3775"
   x2="1135.1635"
   y1="132.1498"
   x1="1139.6387"
   gradientUnits="userSpaceOnUse"
   id="SVGID_3_">
			<stop
   id="stop42"
   style="stop-color:#E8944A"
   offset="0" />
			<stop
   id="stop44"
   style="stop-color:#F2C97A"
   offset="1" />
		</linearGradient>
		<path
   id="path47"
   d="m 306.802,271.094 c 0,0 4.488,8.497 16.378,9.357 12.723,0.921 20.093,-6.662 21.213,-12.098 0.217,-18.125 -0.449,-51.274 -0.449,-51.274 l -27.94,6.729 z"
   style="fill:url(#SVGID_3_)" />
		
			<linearGradient
   gradientTransform="matrix(-0.9915,0.1807,0.109,0.9888,1438.2836,-97.0639)"
   y2="77.890999"
   x2="1134.2054"
   y1="181.35651"
   x1="1175.5917"
   gradientUnits="userSpaceOnUse"
   id="SVGID_4_">
			<stop
   id="stop49"
   style="stop-color:#FFB375"
   offset="0" />
			<stop
   id="stop51"
   style="stop-color:#F2C97A"
   offset="1" />
		</linearGradient>
		<path
   id="path54"
   d="m 281.925,205.902 c 4.898,9.61 11.064,26.752 13.984,35.701 -0.101,5.375 -1.662,3.616 -2.603,8.068 5.498,2.205 14.107,4.775 22.459,3.253 25.57,-9.979 39.474,-24.844 47.544,-70.418 -1.357,-38.893 -23.638,-55.974 -61.308,-44.543 -19.902,6.039 -8.033,24.253 -15.383,53.169 -1.995,7.856 -3.644,9.472 -4.693,14.77 z"
   style="fill:url(#SVGID_4_)" />
		<path
   id="path56"
   d="m 340.882,174.051 c -0.225,2.954 -4.018,5.329 -8.469,5.306 -4.457,-0.022 -7.884,-2.436 -7.66,-5.39 0.225,-2.954 3.775,-3.435 8.228,-3.411 4.453,0.022 8.125,0.542 7.901,3.495 z"
   style="fill:#ffffff" />
		<path
   id="path58"
   d="m 308.064,173.424 c 0.204,2.47 -3.471,5.239 -7.568,5.867 -4.099,0.627 -7.056,-1.398 -7.331,-3.47 -0.325,-2.457 2.9,-4.219 6.999,-4.847 4.1,-0.627 7.694,-0.02 7.9,2.45 z"
   style="fill:#ffffff" />
		<path
   id="path60"
   d="m 328.16,172.046 c -0.732,0.814 -1.174,1.89 -1.152,3.038 0.047,2.267 1.892,3.939 4.127,3.734 2.228,-0.203 4.001,-2.208 3.953,-4.473 -0.021,-0.926 -0.345,-1.749 -0.864,-2.39 -1.826,0.34 -4.139,0.526 -6.064,0.091 z"
   style="fill:#474d4a" />
		<path
   id="path62"
   d="m 295.474,173.064 c -0.163,0.611 -0.222,1.271 -0.15,1.946 0.276,2.614 2.375,4.478 4.683,4.162 2.315,-0.316 3.961,-2.691 3.682,-5.306 -0.087,-0.822 -0.353,-1.57 -0.749,-2.199 -2.436,0.813 -4.929,1.396 -7.466,1.397 z"
   style="fill:#474d4a" />
		
			<linearGradient
   gradientTransform="matrix(-0.9915,0.1807,0.109,0.9888,1438.2836,-97.0637)"
   y2="84.213402"
   x2="1137.1781"
   y1="84.213402"
   x1="1157.0223"
   gradientUnits="userSpaceOnUse"
   id="SVGID_5_">
			<stop
   id="stop64"
   style="stop-color:#ED9C3B"
   offset="0" />
			<stop
   id="stop66"
   style="stop-color:#F2C97A"
   offset="1" />
		</linearGradient>
		<path
   id="path69"
   d="m 312.276,181.082 c 0,0 0.893,14.119 -7.245,11.873 -2.732,-0.755 -2.086,8.494 0.449,11.285 4.015,0.862 22.554,-2.007 22.554,-2.007 z"
   style="fill:url(#SVGID_5_)" />
		<path
   id="path71"
   d="m 337.636,202.117 c 0,0 -20.521,16.778 -39.64,11.74 0,0 1.396,14.925 14.202,13.624 12.56,-1.275 27.206,-21.131 25.438,-25.364 z"
   style="fill:#ffffff" />
		<path
   id="path73"
   d="m 349.291,185.074 c -0.084,-0.022 -8.642,-2.209 -19.076,-1.472 v -1.071 c 10.614,-0.75 19.322,1.479 19.412,1.503 z"
   style="fill:#dea376" />
		
			<linearGradient
   gradientTransform="matrix(-0.9915,0.1807,0.109,0.9888,1438.2836,-97.0639)"
   y2="-14.6811"
   x2="1139.6544"
   y1="105.208"
   x1="1106.7438"
   gradientUnits="userSpaceOnUse"
   id="SVGID_6_">
			<stop
   id="stop75"
   style="stop-color:#4A1F24"
   offset="0.2182" />
			<stop
   id="stop77"
   style="stop-color:#854D1A"
   offset="0.774" />
		</linearGradient>
		<path
   id="path80"
   d="m 357.175,165.406 c -0.733,-5.567 -2.051,-8.87 -4.383,-12.883 -8.096,-4.499 -16.022,-4.963 -23.611,-5.775 -5.732,-0.616 -13.851,-1.026 -18.198,-0.234 -14.241,-0.735 -16.38,1.956 -20.791,1.855 -0.144,-0.003 -7.781,-11 -14.292,-20.193 6.363,-2.171 4.039,-0.229 8.079,-0.458 -1.878,-3.205 -4.471,-6.453 -6.872,-11.886 3.354,-2.418 20.741,-0.186 25.695,-1.679 -2.817,-2.526 -7.098,-8.666 -1.997,-8.706 24.698,-0.2 44.014,8.02 60.811,14.433 2.841,16.274 6.367,24.883 6.562,35.311 0.163,8.656 -4.488,31.997 -4.488,31.997 l -5.931,1.556 c 0.831,-8.715 0.874,-12.302 -0.584,-23.338 z"
   style="fill:url(#SVGID_6_)" />
		<polygon
   id="polygon82"
   points="341.651,184.798 350.114,188.013 349.676,189.022 341.215,185.807 "
   style="fill:#dea376" />
		
			<linearGradient
   gradientTransform="matrix(-1.0028,-0.1019,-0.1936,1.1865,1497.7261,79.4559)"
   y2="186.1396"
   x2="1103.5917"
   y1="190.2099"
   x1="1094.7015"
   gradientUnits="userSpaceOnUse"
   id="SVGID_7_">
			<stop
   id="stop84"
   style="stop-color:#FFB375"
   offset="0" />
			<stop
   id="stop86"
   style="stop-color:#F2C97A"
   offset="1" />
		</linearGradient>
		<path
   id="path89"
   d="m 355.261,190.599 c -0.653,4.018 0.016,8.538 3.151,8.856 3.134,0.317 7.55,-3.683 8.205,-7.704 0.655,-4.015 -1.354,-7.533 -4.49,-7.85 -3.134,-0.32 -6.209,2.681 -6.866,6.698 z"
   style="fill:url(#SVGID_7_)" />
		<path
   id="path91"
   d="m 300.875,146.185 c -0.29,0.035 -0.582,-0.048 -0.803,-0.253 -6.092,-5.648 -10.067,-11.25 -10.235,-11.484 -0.33,-0.467 -0.202,-1.143 0.285,-1.508 0.493,-0.368 1.151,-0.283 1.481,0.18 0.039,0.057 4.036,5.679 9.974,11.185 0.416,0.386 0.417,1.065 0.004,1.514 -0.195,0.212 -0.449,0.335 -0.706,0.366 z"
   style="fill:#6b382b" />
		<path
   id="path93"
   d="m 313.51,145.813 c -0.285,0.034 -0.57,-0.045 -0.792,-0.245 -10.705,-9.669 -23.273,-28.76 -23.397,-28.952 -0.315,-0.479 -0.165,-1.15 0.331,-1.502 0.498,-0.351 1.159,-0.249 1.472,0.23 0.123,0.191 12.558,19.076 23.077,28.578 0.425,0.383 0.433,1.061 0.022,1.514 -0.193,0.22 -0.45,0.345 -0.713,0.377 z"
   style="fill:#6b382b" />
		<path
   id="path95"
   d="m 314.004,126.086 c -0.304,0.036 -0.612,-0.059 -0.837,-0.285 -8.374,-8.581 -9.768,-10.275 -9.823,-10.343 -0.359,-0.442 -0.273,-1.121 0.191,-1.516 0.469,-0.395 1.137,-0.358 1.497,0.085 0.07,0.087 1.517,1.819 9.707,10.212 0.401,0.407 0.368,1.088 -0.065,1.518 -0.19,0.19 -0.428,0.301 -0.67,0.329 z"
   style="fill:#6b382b" />
		<g
   id="g101">
			<g
   id="g99">
				<path
   id="path97"
   d="m 307.721,172.225 c -1.712,0.342 -7.046,0.549 -8.049,0.685 0,0 -5.555,1.255 -6.85,1.37 0.579,-1.19 1.989,-2.26 3.082,-2.912 1.099,-0.647 2.712,-1.301 3.926,-1.465 1.214,-0.165 2.428,-0.104 3.575,0.176 1.138,0.296 3.434,1.259 4.316,2.146 z"
   style="fill:#40382b" />
			</g>
		</g>
		
			<linearGradient
   gradientTransform="matrix(-0.9578,0.3489,0.2787,0.9427,1354.7656,-196.6914)"
   y2="-14.9338"
   x2="1068.4591"
   y1="-14.9338"
   x1="1053.8207"
   gradientUnits="userSpaceOnUse"
   id="SVGID_8_">
			<stop
   id="stop103"
   style="stop-color:#4A1F24"
   offset="0.2182" />
			<stop
   id="stop105"
   style="stop-color:#854D1A"
   offset="0.774" />
		</linearGradient>
		<path
   id="path108"
   d="m 342.162,159.98 -0.488,4.184 c 0,0 -11.64,-1.016 -14.157,-1.43 -1.715,-3.881 -0.027,-8.221 -0.027,-8.221 z"
   style="fill:url(#SVGID_8_)" />
		
			<linearGradient
   gradientTransform="matrix(0.9937,0.015,-0.0859,1.005,504.3401,4.677)"
   y2="159.29201"
   x2="-186.9705"
   y1="159.29201"
   x1="-196.59891"
   gradientUnits="userSpaceOnUse"
   id="SVGID_9_">
			<stop
   id="stop110"
   style="stop-color:#4A1F24"
   offset="0.2182" />
			<stop
   id="stop112"
   style="stop-color:#854D1A"
   offset="0.774" />
		</linearGradient>
		<path
   id="path115"
   d="m 295.115,163.938 0.934,2.077 c 0,0 3.459,-0.94 8.669,-2.345 -0.847,-2.759 -1.352,-5.917 -1.352,-5.917 z"
   style="fill:url(#SVGID_9_)" />
		<path
   id="path117"
   d="m 312.752,215.445 c -5.862,0.7 -11.69,1.011 -15.9,-2.426 -0.442,-0.361 -0.651,-0.85 -0.261,-1.32 0.39,-0.47 0.925,-0.275 1.37,0.085 3.881,3.172 9.791,2.553 15.926,1.798 7.554,-0.925 20.172,-10.607 20.294,-10.703 0.48,-0.381 0.947,-0.86 1.294,-0.403 0.343,0.454 0.233,1.132 -0.245,1.512 -0.52,0.414 -11.753,9.337 -20.872,11.2 -0.45,0.092 -1.151,0.204 -1.606,0.257 z"
   style="fill:#e0946f" />
		<g
   id="g121">
			<path
   id="path119"
   d="m 340.197,206.554 c -0.558,0.067 -1.049,-0.311 -1.111,-0.872 l -0.302,-2.738 c -1.636,0.528 -4.393,0.956 -6.301,-1.197 -0.379,-0.426 -0.319,-1.107 0.134,-1.52 0.451,-0.412 1.126,-0.401 1.501,0.026 1.776,2.006 5.102,0.269 5.137,0.251 l 1.342,-0.715 0.61,5.505 c 0.066,0.585 -0.358,1.144 -0.945,1.251 -0.02,0.005 -0.042,0.006 -0.065,0.009 z"
   style="fill:#e0946f" />
		</g>
		<path
   id="path123"
   d="m 371.073,373.756 c -0.108,0.012 -0.216,0.008 -0.327,-0.015 -0.592,-0.117 -0.949,-0.713 -0.793,-1.329 l 5.212,-20.417 c 0.158,-0.616 0.767,-1.023 1.366,-0.902 0.595,0.118 0.949,0.712 0.793,1.33 l -5.214,20.417 c -0.128,0.502 -0.558,0.863 -1.037,0.916 z"
   style="fill:#aa9449" />
		<polygon
   id="polygon125"
   points="309.762,191.001 311.266,180.913 313.374,181.083 311.625,192.839 304.595,194.026 305.559,204.105 303.438,204.459 302.272,192.265 "
   style="fill:#d18041" />
		<path
   id="path127"
   d="m 272.603,516.293 c -3.728,0.026 -6.407,-0.363 -7.423,-0.707 -0.855,-0.292 -1.269,-1.255 -0.924,-2.15 0.345,-0.892 1.317,-1.382 2.172,-1.094 0.414,0.111 34.831,5.411 51.804,-27.021 0.448,-0.853 1.462,-1.224 2.274,-0.827 0.81,0.397 1.103,1.41 0.655,2.264 -13.046,24.93 -36.387,29.448 -48.558,29.535 z"
   style="fill:#ad974e" />
		<path
   id="path129"
   d="m 289.759,291.955 c -0.359,0.003 -0.702,-0.173 -0.895,-0.5 -0.31,-0.519 -0.129,-1.225 0.403,-1.577 l 6.957,-4.592 c 0.534,-0.353 1.215,-0.217 1.523,0.303 0.312,0.52 0.131,1.227 -0.403,1.578 l -6.957,4.592 c -0.198,0.131 -0.413,0.194 -0.628,0.196 z"
   style="fill:#ad974e" />
		<path
   id="path131"
   d="m 308.076,310.848 c -0.134,10e-4 -0.269,-0.023 -0.398,-0.074 -0.561,-0.222 -0.803,-0.879 -0.547,-1.465 l 3.878,-8.828 c 0.257,-0.588 0.918,-0.883 1.48,-0.661 0.558,0.223 0.802,0.879 0.546,1.466 l -3.879,8.829 c -0.196,0.451 -0.635,0.73 -1.08,0.733 z"
   style="fill:#ad974e" />
		<path
   id="path133"
   d="m 325.031,315.554 c -0.586,0.004 -1.048,-0.46 -1.045,-1.064 l 0.052,-9.938 c 0.004,-0.625 0.505,-1.166 1.121,-1.206 0.562,-0.036 1.112,0.435 1.109,1.062 l -0.052,9.938 c -0.002,0.626 -0.505,1.167 -1.121,1.208 -0.02,-10e-4 -0.041,0 -0.064,0 z"
   style="fill:#ad974e" />
		<path
   id="path135"
   d="m 340.391,305.507 c -0.325,0.003 -0.638,-0.139 -0.841,-0.414 l -3.34,-4.519 c -0.357,-0.484 -0.241,-1.199 0.259,-1.599 0.502,-0.398 1.198,-0.329 1.557,0.155 l 3.341,4.518 c 0.358,0.484 0.242,1.201 -0.26,1.599 -0.22,0.174 -0.471,0.259 -0.716,0.26 z"
   style="fill:#ad974e" />
		<path
   id="path137"
   d="m 356.018,301.504 c -0.229,0.002 -0.457,-0.069 -0.648,-0.218 l -8.227,-6.472 c -0.471,-0.37 -0.53,-1.082 -0.132,-1.588 0.395,-0.506 1.101,-0.615 1.569,-0.245 l 8.228,6.471 c 0.471,0.37 0.53,1.081 0.133,1.588 -0.236,0.301 -0.583,0.462 -0.923,0.464 z"
   style="fill:#ad974e" />
		<path
   id="path139"
   d="m 358.942,288.624 c -0.138,10e-4 -0.277,-0.024 -0.406,-0.078 l -5.427,-2.233 c -0.556,-0.23 -0.794,-0.888 -0.531,-1.473 0.265,-0.585 0.935,-0.869 1.485,-0.643 l 5.427,2.233 c 0.556,0.228 0.795,0.888 0.531,1.472 -0.202,0.445 -0.639,0.719 -1.079,0.722 z"
   style="fill:#ad974e" />
		<path
   id="path141"
   d="m 300.472,298.693 c -0.253,0.002 -0.502,-0.085 -0.7,-0.263 -0.445,-0.402 -0.46,-1.118 -0.034,-1.601 l 3.285,-3.714 c 0.428,-0.481 1.134,-0.548 1.577,-0.144 0.443,0.402 0.46,1.118 0.034,1.6 l -3.287,3.713 c -0.236,0.268 -0.559,0.407 -0.875,0.409 z"
   style="fill:#ad974e" />
		
			<rect
   id="rect143"
   height="2.25"
   width="28.648001"
   style="fill:#4c4a4a"
   transform="matrix(0.9617,-0.274,0.274,0.9617,-147.228,105.9134)"
   y="578.79797"
   x="291.15302" />
		<g
   id="g149">
			<g
   id="g147">
				<path
   id="path145"
   d="m 342.231,173.415 c -1.694,-0.018 -3.229,-0.14 -4.744,-0.258 -1.51,-0.122 -2.976,-0.244 -4.435,-0.329 -1.455,-0.082 -2.898,-0.133 -4.376,-0.112 -1.485,0.012 -2.99,0.113 -4.699,0.226 1.202,-1.32 2.796,-2.191 4.442,-2.723 1.654,-0.527 3.382,-0.709 5.047,-0.608 1.669,0.101 3.282,0.476 4.777,1.089 1.484,0.631 2.892,1.464 3.988,2.715 z"
   style="fill:#40382b" />
			</g>
		</g>
		<path
   id="path151"
   d="m 203.381,255.383 c 0,1.219 -0.988,2.206 -2.207,2.206 -1.219,0 -2.207,-0.987 -2.207,-2.206 0,-1.219 0.988,-2.207 2.207,-2.207 1.22,-10e-4 2.207,0.987 2.207,2.207 z"
   style="fill:#e6e6e6" />
		<path
   id="path153"
   d="m 200.455,282.945 c -0.164,0 -0.326,-0.074 -0.432,-0.215 -0.179,-0.238 -0.132,-0.577 0.107,-0.757 l 5.855,-4.414 c 0.237,-0.181 0.577,-0.131 0.757,0.107 0.179,0.238 0.132,0.577 -0.107,0.757 l -5.855,4.414 c -0.098,0.072 -0.212,0.108 -0.325,0.108 z"
   style="fill:#cf8c59" />
		<path
   id="path155"
   d="m 209.822,284.386 c -0.212,0 -0.412,-0.125 -0.499,-0.332 -0.115,-0.276 0.015,-0.592 0.291,-0.707 l 4.324,-1.802 c 0.274,-0.115 0.592,0.015 0.707,0.291 0.115,0.275 -0.015,0.592 -0.291,0.707 l -4.324,1.802 c -0.068,0.028 -0.139,0.041 -0.208,0.041 z"
   style="fill:#cf8c59" />
	</g>
	<g
   id="g339">
		<polygon
   id="polygon159"
   points="501.475,286.503 528.768,294.339 511.873,354.318 486.883,350.816 "
   style="fill:#e6e6e6" />
		<path
   id="path161"
   d="m 515.834,305.383 c -0.177,1.513 -1.545,2.572 -3.059,2.368 -1.515,-0.205 -2.598,-1.596 -2.419,-3.108 0.176,-1.512 1.546,-2.571 3.061,-2.366 1.513,0.203 2.595,1.594 2.417,3.106 z"
   style="fill:#b3b3b3" />
		
			<linearGradient
   gradientTransform="matrix(1,0,0.0133,1,-7.2493,0)"
   y2="374.29559"
   x2="527.65808"
   y1="374.29559"
   x1="448.39169"
   gradientUnits="userSpaceOnUse"
   id="SVGID_10_">
			<stop
   id="stop163"
   style="stop-color:#FFB375"
   offset="0" />
			<stop
   id="stop165"
   style="stop-color:#F2C97A"
   offset="1" />
		</linearGradient>
		<path
   id="path168"
   d="m 445.181,303.662 c 0,0 6.655,3.126 12.692,6.125 8.811,18.729 10.089,57.016 20.077,100.524 3.861,-7.566 26.294,-54.586 26.294,-54.586 0,0 -0.953,-3.964 -1.146,-4.864 2.294,-3.603 5.285,-9.007 6.163,-10.628 -1.477,-2.702 -5.51,-7.927 -5.51,-7.927 0,0 2.965,-7.386 3.305,-8.827 1.266,0.36 4.898,2.522 6.18,4.143 0.164,-1.261 -0.785,-4.864 -0.785,-4.864 l -2.93,-3.603 c 0,0 -0.546,-0.361 1.598,-1.712 3.39,0.864 9.014,8.678 11.482,9.998 0.935,2.522 2.072,6.666 2.299,10.268 -3.177,4.864 -7.35,16.213 -9.99,20.896 -6.432,16.029 -21.299,62.899 -32.968,80.888 -4.462,6.879 -8.028,6.796 -10.78,2.162 -14.143,-33.868 -15.915,-35.798 -22.546,-69.538 z"
   style="fill:url(#SVGID_10_)" />
		<g
   id="g172">
			<path
   id="path170"
   d="m 399.932,319.108 -2.09,-2.673 c 2.852,-2.217 9.361,-0.956 10.638,-0.682 l -0.668,3.297 c -2.464,-0.529 -6.677,-0.875 -7.88,0.058 z"
   style="fill:#e0946f" />
		</g>
		<g
   id="g176">
			<path
   id="path174"
   d="m 412.415,332.054 c -0.707,0 -1.37,-0.448 -1.616,-1.154 -0.305,-0.884 0.157,-1.838 1.038,-2.133 0.421,-0.251 0.809,-2.246 0.649,-4.21 -0.076,-0.929 0.612,-1.733 1.54,-1.799 0.949,-0.079 1.744,0.633 1.82,1.562 0.093,1.083 0.383,6.547 -2.9,7.645 -0.176,0.061 -0.356,0.089 -0.531,0.089 z"
   style="fill:#e0946f" />
		</g>
		
			<linearGradient
   gradientTransform="matrix(1,0.0102,0.0031,0.9999,-612.7893,-14.3276)"
   y2="761.8645"
   x2="1040.9299"
   y1="761.8645"
   x1="997.82391"
   gradientUnits="userSpaceOnUse"
   id="SVGID_11_">
			<stop
   id="stop178"
   style="stop-color:#FFB375"
   offset="0" />
			<stop
   id="stop180"
   style="stop-color:#F2C97A"
   offset="1" />
		</linearGradient>
		<path
   id="path183"
   d="m 387.075,620.364 c -1.571,5.043 15.763,82.999 15.763,82.999 l -11.123,38.11 16.917,154.855 20.672,0.961 -10.163,-16.131 10.93,-262.305 z"
   style="fill:url(#SVGID_11_)" />
		
			<linearGradient
   gradientTransform="matrix(-0.9938,0.0465,0.1563,0.9989,259.23,21.5274)"
   y2="644.33502"
   x2="-53.246899"
   y1="784.64288"
   x1="-140.03551"
   gradientUnits="userSpaceOnUse"
   id="SVGID_12_">
			<stop
   id="stop185"
   style="stop-color:#FFB375"
   offset="0" />
			<stop
   id="stop187"
   style="stop-color:#F2C97A"
   offset="1" />
		</linearGradient>
		<path
   id="path190"
   d="m 474.537,607.726 c 2.401,4.978 2.854,88.69 2.854,88.69 l 17.5,39.909 3.615,143.911 8.476,15.74 -17.202,-3.948 -50.798,-279.138 z"
   style="fill:url(#SVGID_12_)" />
		
			<linearGradient
   gradientTransform="matrix(0.9955,-0.0836,0.0969,0.9966,-662.6067,140.129)"
   y2="71.7854"
   x2="1042.8855"
   y1="213.0538"
   x1="1089.9757"
   gradientUnits="userSpaceOnUse"
   id="SVGID_13_">
			<stop
   id="stop192"
   style="stop-color:#4A1F24"
   offset="0.2182" />
			<stop
   id="stop194"
   style="stop-color:#854D1A"
   offset="0.774" />
		</linearGradient>
		<path
   id="path197"
   d="m 441.459,186.152 c 0,0 5.103,17.239 14.747,35.539 13.089,24.831 14.307,27.711 7.968,37.274 -17.512,26.419 -41.034,28.939 -41.034,28.939 L 402.601,181.093 Z"
   style="fill:url(#SVGID_13_)" />
		<path
   id="path199"
   d="m 466.639,465.944 c -4.92,-70.498 -5.383,-59.986 -3.884,-74.04 3.628,-8.996 7.149,-19.754 10.949,-29.873 -3.464,-7.728 -14.374,-24.14 -18.256,-30.468 -2.357,-8.152 -5.593,-12.534 -9.545,-27.901 -13.75,-4.324 -26.337,-9.856 -26.337,-9.856 0,0 -14.241,4.483 -30.572,11.151 -2.059,0.841 -4.151,1.715 -6.254,2.622 -0.529,16.49 -4.676,42.724 -8.802,70.458 1.048,3.369 2.155,8.261 3.125,13.017 1.565,7.676 2.769,14.998 2.769,14.998 0,0 0.993,4.751 2.368,11.936 1.425,7.453 3.257,17.526 4.819,27.651 1.925,12.48 2.519,13.434 2.334,21.238 -0.452,19.034 -15.434,58.368 -16.071,80.013 6.92,44.289 22.742,130.849 22.742,130.849 0,0 23.898,0.868 39.609,-1.383 20.476,-2.93 45.713,-3.479 45.713,-3.479 l 3.04,-134.508 z"
   style="fill:#4f8fc9" />
		<path
   id="path201"
   d="m 391.502,304.206 c 0,0 7.419,37.043 34.352,32.606 13.649,-2.249 17.095,-21.258 13.534,-35.312 -3.75,-0.17 -12.959,-6.847 -24.02,-6.289 -7.185,0.365 -14.926,4.872 -23.866,8.995 z"
   style="fill:#2475b0" />
		
			<linearGradient
   gradientTransform="matrix(0.9862,0.1793,-0.1662,0.9838,-573.0036,-145.4363)"
   y2="280.8472"
   x2="1047.0249"
   y1="231.179"
   x1="1041.5658"
   gradientUnits="userSpaceOnUse"
   id="SVGID_14_">
			<stop
   id="stop203"
   style="stop-color:#E89133"
   offset="0" />
			<stop
   id="stop205"
   style="stop-color:#F2C97A"
   offset="1" />
		</linearGradient>
		<path
   id="path208"
   d="m 431.067,298.978 c 0,0 4.371,25.841 -10.62,25.841 -14.242,0 -20.495,-19.819 -21.128,-24.548 1.831,-1.676 3.89,-2.263 3.687,-4.497 -1.318,-14.616 -4.505,-42.725 -4.505,-42.725 l 17.465,2.811 8.959,39.351 z"
   style="fill:url(#SVGID_14_)" />
		
			<linearGradient
   gradientTransform="matrix(1.0422,-0.0019,0.0126,0.8414,-661.2413,150.1792)"
   y2="78.919296"
   x2="1017.449"
   y1="191.5441"
   x1="1062.4989"
   gradientUnits="userSpaceOnUse"
   id="SVGID_15_">
			<stop
   id="stop210"
   style="stop-color:#FFB375"
   offset="0" />
			<stop
   id="stop212"
   style="stop-color:#F2C97A"
   offset="1" />
		</linearGradient>
		<path
   id="path215"
   d="m 449.301,226.903 c -0.394,11.617 -3.197,15.613 -7.182,24.833 -2.526,5.844 -8.818,16.184 -18.12,23.415 -30.089,-3.692 -54.173,-15.523 -68.555,-47.399 -3.879,-36.002 13.381,-64.026 57.679,-59.905 23.404,2.178 22.032,15.171 29.349,43.158 2.116,8.102 5.014,10.242 6.829,15.898 z"
   style="fill:url(#SVGID_15_)" />
		
			<linearGradient
   gradientTransform="matrix(0.6229,-0.001,0.0093,0.6228,-503.9333,209.2429)"
   y2="25.090799"
   x2="1469.1266"
   y1="25.090799"
   x1="1483.213"
   gradientUnits="userSpaceOnUse"
   id="SVGID_16_">
			<stop
   id="stop217"
   style="stop-color:#FF9E54"
   offset="0" />
			<stop
   id="stop219"
   style="stop-color:#F2C97A"
   offset="1" />
		</linearGradient>
		<path
   id="path222"
   d="m 411.86,211.123 c 0,0 5.047,9.883 14.583,16.17 -3.537,6.61 -16.513,8.385 -16.513,8.385 z"
   style="fill:url(#SVGID_16_)" />
		<path
   id="path224"
   d="m 369.168,221.311 -0.484,-1.023 c 0.093,-0.041 9.258,-4.231 20.894,-5.545 l 0.139,1.117 c -11.459,1.294 -20.458,5.408 -20.549,5.451 z"
   style="fill:#c4a652" />
		
			<linearGradient
   gradientTransform="matrix(1,-0.0017,0.0148,0.9747,-644.5035,117.2636)"
   y2="24.364599"
   x2="1056.1906"
   y1="193.937"
   x1="1009.6414"
   gradientUnits="userSpaceOnUse"
   id="SVGID_17_">
			<stop
   id="stop226"
   style="stop-color:#4A1F24"
   offset="0.2182" />
			<stop
   id="stop228"
   style="stop-color:#6E4238"
   offset="0.774" />
		</linearGradient>
		<path
   id="path231"
   d="m 362.895,226.939 c 19.223,-14.679 24.925,-21.598 36.756,-36.147 4.355,-8.396 8.277,-11.839 10.457,-17.17 12.158,11.713 30.13,21.932 33.404,19.586 -1.93,-10.071 -9.275,-33.494 -27.682,-43.081 -8.727,2.641 -8.089,4.501 -11.347,3.42 -3.953,-1.313 -14.12,-4.967 -26.98,0.374 -11.913,15.202 -27.37,42.339 -29.345,53.336 -1.907,10.612 -6.045,36.12 -7.002,46.716 -2.032,22.566 34.562,37.398 61.802,38.241 -0.32,-7.494 -0.664,-21.738 -0.664,-21.738 -8.601,-3.873 -17.353,-6.23 -24.639,-13.45 -13.228,-13.114 -17.086,-22.49 -14.76,-30.087 z"
   style="fill:url(#SVGID_17_)" />
		<polygon
   id="polygon233"
   points="380.677,218.04 381.262,219.01 372.501,224.226 371.916,223.258 "
   style="fill:#c4a652" />
		
			<linearGradient
   gradientTransform="matrix(1,-0.0017,0.015,1,-646.0536,107.9044)"
   y2="123.1869"
   x2="1045.4554"
   y1="133.83929"
   x1="1042.5312"
   gradientUnits="userSpaceOnUse"
   id="SVGID_18_">
			<stop
   id="stop235"
   style="stop-color:#FFB375"
   offset="0" />
			<stop
   id="stop237"
   style="stop-color:#F2C97A"
   offset="1" />
		</linearGradient>
		<path
   id="path240"
   d="m 404.772,237.473 c 0.055,3.737 2.113,4.548 -1.334,4.556 -3.448,0.006 -8.23,-3.233 -9.531,-6.751 -1.807,-4.883 1.062,-8.37 4.512,-8.375 3.445,-0.006 6.295,6.838 6.353,10.57 z"
   style="fill:url(#SVGID_18_)" />
		<g
   id="g244">
			<path
   id="path242"
   d="m 399.61,247.178 c -0.03,0 -0.059,-0.001 -0.089,-0.004 -0.62,-0.048 -1.091,-0.589 -1.05,-1.208 l 0.278,-4.322 1.249,0.253 c -0.04,-0.011 1.119,0.004 2.342,-2.603 0.261,-0.557 0.933,-0.794 1.495,-0.524 0.563,0.27 0.807,0.941 0.544,1.501 -1.184,2.523 -2.549,3.42 -3.525,3.722 l -0.138,2.147 c -0.04,0.591 -0.526,1.038 -1.106,1.038 z"
   style="fill:#e0946f" />
		</g>
		<path
   id="path246"
   d="m 404.455,212.712 c -1.575,2.345 -5.634,4.321 -9.153,5.145 -4.049,0.945 -10.291,-1.229 -11.719,-2.28 1.228,-2.564 3.484,-4.507 7.03,-6.608 3.548,-2.102 10.786,-3.652 13.842,3.743 z"
   style="fill:#ffffff" />
		
			<linearGradient
   gradientTransform="matrix(0.9653,-0.2486,0.2615,0.9686,-246.6911,201.7438)"
   y2="176.61349"
   x2="619.60779"
   y1="163.15359"
   x1="617.99707"
   gradientUnits="userSpaceOnUse"
   id="SVGID_19_">
			<stop
   id="stop248"
   style="stop-color:#144F87"
   offset="0.2606" />
			<stop
   id="stop250"
   style="stop-color:#5CADB5"
   offset="0.8848" />
		</linearGradient>
		<path
   id="path253"
   d="m 393.217,218.254 c 3.27,0.406 5.961,-0.596 6.783,-2.075 0.824,-0.762 1.244,-7.651 -1.846,-9.077 -3.517,0.307 -8.507,0.063 -9.546,4.369 -0.411,-0.532 2.02,6.231 4.609,6.783 z"
   style="fill:url(#SVGID_19_)" />
		<path
   id="path255"
   d="m 421.931,211.853 c 2.293,1.532 7.289,3.378 10.575,2.847 3.786,-0.611 5.142,-0.463 5.901,-1.918 0.278,-3.439 -2.346,-8.185 -6.189,-8.789 -3.845,-0.6 -8.556,2.519 -10.287,7.86 z"
   style="fill:#ffffff" />
		
			<linearGradient
   gradientTransform="matrix(-0.9901,-0.1535,-0.1403,0.9881,1810.4609,101.6246)"
   y2="324.2308"
   x2="1346.2003"
   y1="313.62469"
   x1="1347.0481"
   gradientUnits="userSpaceOnUse"
   id="SVGID_20_">
			<stop
   id="stop257"
   style="stop-color:#144F87"
   offset="0.2606" />
			<stop
   id="stop259"
   style="stop-color:#5CADB5"
   offset="0.8848" />
		</linearGradient>
		<path
   id="path262"
   d="m 434.298,215.156 c -2.675,-0.026 -4.204,-0.738 -5.518,-1.312 -0.86,-0.716 -2.119,-6 0.633,-7.846 3.35,-0.061 6.505,0.061 7.745,2.382 0.323,-0.606 -0.484,5.909 -2.86,6.776 z"
   style="fill:url(#SVGID_20_)" />
		<path
   id="path264"
   d="m 350.81,228.411 c -0.093,0 -0.188,-0.012 -0.282,-0.035 -0.604,-0.154 -0.974,-0.767 -0.829,-1.369 0.08,-0.324 8.015,-32.645 19.02,-49.902 4.909,-7.701 10.625,-18.215 18.399,-24.972 0.465,-0.403 2.874,-1.478 3.288,-1.006 0.41,0.471 0.366,1.181 -0.101,1.585 -7.529,6.549 -14.845,18.026 -19.686,25.619 -10.805,16.946 -18.656,48.913 -18.734,49.233 -0.123,0.511 -0.575,0.847 -1.075,0.847 z"
   style="fill:#52292b" />
		<path
   id="path266"
   d="m 357.682,224.028 c -0.12,0 -0.239,-0.037 -0.341,-0.114 -0.249,-0.186 -0.305,-0.538 -0.12,-0.787 0.144,-0.194 14.508,-19.638 25.403,-36.725 5.616,-8.81 12.68,-22.182 15.805,-32.195 0.091,-0.293 0.408,-0.456 0.702,-0.361 0.298,0.097 0.465,0.414 0.37,0.709 -3.604,11.554 -11.707,25.84 -15.927,32.46 -10.917,17.119 -25.302,36.593 -25.446,36.788 -0.11,0.146 -0.278,0.225 -0.446,0.225 z"
   style="fill:#52292b" />
		<path
   id="path268"
   d="m 433.302,185.871 c -0.281,0 -0.529,-0.211 -0.564,-0.498 -1.273,-9.987 -12.286,-30.141 -18.612,-34.32 -0.262,-0.172 0.546,-0.19 0.714,-0.45 0.17,-0.257 0.551,-0.35 0.809,-0.179 7.183,4.746 16.983,25.253 18.204,34.822 0.04,0.308 -0.177,0.587 -0.486,0.622 -0.023,0.001 -0.044,0.003 -0.065,0.003 z"
   style="fill:#52292b" />
		<path
   id="path270"
   d="m 412.046,172.66 c -0.072,0 -0.146,-0.006 -0.222,-0.021 -0.61,-0.122 -1.012,-0.715 -0.898,-1.324 1.75,-9.376 -1.805,-17.231 -1.842,-17.309 -0.261,-0.566 -0.016,-1.231 0.547,-1.485 0.564,-0.254 1.233,0 1.494,0.566 0.161,0.346 3.891,8.595 2.012,18.67 -0.1,0.533 -0.565,0.903 -1.091,0.903 z"
   style="fill:#5a3435" />
		<path
   id="path272"
   d="m 410.306,244.233 c 0,0 2.95,5.331 17.745,-1.46 -3.469,-0.692 -6.347,-1.688 -9.255,-1.603 -2.643,0.078 -8.49,3.063 -8.49,3.063 z"
   style="fill:#f28a61" />
		<g
   id="g278">
			<g
   id="g276">
				<path
   id="path274"
   d="m 384.956,200.622 c -0.046,0.042 -0.083,0.084 -0.157,0.119 -0.025,0.004 -0.036,0.018 -0.076,0.008 -0.055,-0.014 -0.091,-0.052 -0.096,-0.11 -0.005,-0.077 0.013,-0.114 0.021,-0.15 0.046,-0.141 0.102,-0.252 0.159,-0.37 0.123,-0.222 0.261,-0.427 0.397,-0.632 0.28,-0.409 0.597,-0.771 0.914,-1.142 0.647,-0.719 1.361,-1.362 2.112,-1.957 1.51,-1.175 3.189,-2.139 5.003,-2.84 1.81,-0.699 3.775,-1.134 5.793,-1.108 1.994,0.03 4.12,0.564 5.62,1.906 -1.97,-0.003 -3.638,0.298 -5.296,0.73 -1.649,0.433 -3.254,1.005 -4.869,1.621 -1.615,0.619 -3.236,1.291 -4.888,1.972 l -2.511,1.024 -1.284,0.515 c -0.216,0.085 -0.427,0.177 -0.633,0.275 -0.105,0.045 -0.212,0.097 -0.294,0.146 -0.023,0.012 -0.034,0.029 -0.044,0.006 -0.028,-0.057 -0.079,-0.048 -0.043,-0.034 0.041,0.021 0.113,0.021 0.172,0.021 z"
   style="fill:#40382b" />
			</g>
		</g>
		<g
   id="g284">
			<g
   id="g282">
				<path
   id="path280"
   d="m 421.997,193.159 c 0.851,-1.259 2.337,-1.883 3.763,-2.16 1.456,-0.264 2.945,-0.155 4.335,0.206 1.389,0.361 2.69,0.979 3.842,1.783 1.148,0.817 2.173,1.804 2.925,3.098 -1.483,-0.105 -2.769,-0.402 -4.014,-0.695 -1.236,-0.301 -2.412,-0.62 -3.565,-0.924 -1.157,-0.303 -2.289,-0.59 -3.459,-0.825 -1.181,-0.228 -2.365,-0.46 -3.827,-0.483 z"
   style="fill:#40382b" />
			</g>
		</g>
		<g
   id="g290">
			<g
   id="g288">
				<path
   id="path286"
   d="m 383.562,212.475 c 1.107,-1.872 2.553,-3.256 4.142,-4.46 0.8,-0.599 1.642,-1.13 2.573,-1.598 0.293,-0.139 0.425,-0.211 0.725,-0.34 0.269,-0.125 0.528,-0.219 0.786,-0.314 0.522,-0.18 1.059,-0.342 1.611,-0.453 2.202,-0.471 4.609,-0.167 6.563,0.828 1.969,0.977 3.509,2.499 4.581,4.233 -1.796,-0.971 -3.556,-1.784 -5.311,-2.141 -1.751,-0.372 -3.437,-0.283 -5.035,0.196 -0.399,0.122 -0.799,0.259 -1.186,0.424 l -0.565,0.257 c -0.149,0.063 -0.451,0.221 -0.595,0.297 -0.799,0.435 -1.643,0.889 -2.521,1.29 -1.757,0.804 -3.605,1.514 -5.768,1.781 z"
   style="fill:#40382b" />
			</g>
		</g>
		<g
   id="g296">
			<g
   id="g294">
				<path
   id="path292"
   d="m 412.754,201.401 2.211,7.376 c 0.724,2.443 1.466,4.875 2.344,7.218 0.425,1.174 0.896,2.328 1.453,3.397 0.569,1.077 1.125,2.05 1.988,2.65 1.982,1.561 4.036,3.109 6.023,4.734 l 0.493,0.405 -0.291,0.433 c -0.689,1.015 -1.462,1.85 -2.317,2.643 -0.853,0.785 -1.779,1.484 -2.758,2.088 -1.971,1.201 -4.197,1.954 -6.457,2.172 2.215,-0.498 4.279,-1.45 6.052,-2.771 0.889,-0.654 1.714,-1.388 2.457,-2.197 0.735,-0.801 1.432,-1.692 1.959,-2.578 l 0.201,0.838 c -2.315,-1.186 -4.516,-2.529 -6.653,-4.042 -0.228,-0.158 -0.614,-0.459 -0.869,-0.729 -0.277,-0.276 -0.512,-0.565 -0.727,-0.857 -0.43,-0.587 -0.784,-1.182 -1.092,-1.793 -0.605,-1.223 -1.076,-2.462 -1.499,-3.706 -0.804,-2.504 -1.366,-5.036 -1.79,-7.583 -0.397,-2.551 -0.691,-5.115 -0.728,-7.698 z"
   style="fill:#d68f5c" />
			</g>
		</g>
		<path
   id="path298"
   d="m 490.131,891.309 -3.399,2.715 c 0,0 3.04,6.012 3.879,5.996 0.844,-0.017 21.707,0.562 21.707,0.562 l -7.608,-10.399 -9.204,-0.958 -2.122,2.806 z"
   style="fill:#453821" />
		<polygon
   id="polygon300"
   points="407.566,890.26 406.026,901.223 424.462,901.008 431.874,900.381 430.408,895.882 425.855,891.666 415.25,890.357 "
   style="fill:#453821" />
		<path
   id="path302"
   d="m 400.78,245.077 c 0,0 5.722,11.085 13.704,13.662 4.328,1.397 9.801,1.212 12.833,-2.44 2.412,-2.909 5.533,-6.538 5.961,-14.054 z"
   style="fill:#f26e61" />
		<path
   id="path304"
   d="m 401.461,243.574 c 0,0 18.309,7.144 31.728,-3.39 0,0 -1.877,12.217 -11.874,14.84 -7.839,2.056 -19.505,-7.728 -19.854,-11.45 z"
   style="fill:#ffffff" />
		<g
   id="g308">
			<path
   id="path306"
   d="m 434.671,240.516 c -0.277,0 -0.555,-0.102 -0.775,-0.307 l -1.562,-1.453 c -0.458,-0.425 -0.489,-1.137 -0.069,-1.59 0.419,-0.451 1.129,-0.473 1.588,-0.046 l 1.562,1.454 c 0.458,0.424 0.489,1.136 0.068,1.589 -0.217,0.233 -0.514,0.353 -0.812,0.353 z"
   style="fill:#e0946f" />
		</g>
		<path
   id="path310"
   d="m 401.047,227.523 c 0.419,2.45 -3.376,5.09 -8.478,5.895 -5.1,0.806 -9.575,-0.526 -9.996,-2.977 -0.419,-2.451 3.378,-5.09 8.48,-5.896 5.101,-0.805 9.575,0.528 9.994,2.978 z"
   style="opacity:0.82999998;fill:#f4a669" />
		<path
   id="path312"
   d="m 443.138,224.655 c -0.209,1.892 -3.339,3.062 -6.997,2.615 -3.658,-0.445 -6.455,-2.341 -6.248,-4.234 0.205,-1.892 3.337,-3.063 6.995,-2.616 3.657,0.445 6.452,2.342 6.25,4.235 z"
   style="opacity:0.82999998;fill:#f4a669" />
		<polygon
   id="polygon314"
   points="455.107,369.533 455.459,371.759 408.365,379.685 408.014,377.46 "
   style="fill:#2475b0" />
		<path
   id="path316"
   d="m 421.503,712.985 c 0.046,3.416 -2.182,6.183 -4.977,6.183 -2.793,0 -5.095,-2.768 -5.142,-6.183 -0.045,-3.414 2.183,-6.183 4.976,-6.183 2.795,-10e-4 5.098,2.769 5.143,6.183 z"
   style="opacity:0.82999998;fill:#e3a669" />
		<path
   id="path318"
   d="m 474.16,710.737 c 0.376,3.416 -1.586,6.183 -4.381,6.183 -2.795,0 -5.364,-2.768 -5.74,-6.183 -0.376,-3.414 1.585,-6.184 4.381,-6.184 2.795,0 5.364,2.77 5.74,6.184 z"
   style="opacity:0.82999998;fill:#e3a669" />
		<g
   id="g324">
			<g
   id="g322">
				<path
   id="path320"
   d="m 438.31,210.714 c -1.274,-1.185 -2.315,-2.327 -3.372,-3.236 -0.517,-0.456 -1.041,-0.824 -1.511,-1.076 -0.241,-0.122 -0.463,-0.207 -0.671,-0.264 -0.105,-0.034 -0.209,-0.042 -0.311,-0.064 l -0.158,-0.022 -0.287,-0.017 c -1.388,-0.091 -2.642,-0.052 -3.931,0.308 -1.303,0.352 -2.634,1.071 -4.104,1.875 0.484,-1.601 1.464,-3.072 2.96,-4.117 1.499,-1.068 3.444,-1.452 5.174,-1.408 l 0.304,0.01 0.424,0.035 c 0.286,0.032 0.573,0.09 0.841,0.18 0.543,0.167 1.044,0.411 1.468,0.714 0.86,0.593 1.481,1.34 1.953,2.109 0.915,1.55 1.364,3.229 1.221,4.973 z"
   style="fill:#40382b" />
			</g>
		</g>
		<polygon
   id="polygon326"
   points="399.84,478.396 436.551,493.333 457.671,477.504 459.033,479.309 436.909,495.895 399.015,480.477 "
   style="fill:#2475b0" />
		
			<linearGradient
   gradientTransform="matrix(1,0,0.0133,1,-7.2493,0)"
   y2="379.63379"
   x2="491.31299"
   y1="379.63379"
   x1="364.5462"
   gradientUnits="userSpaceOnUse"
   id="SVGID_21_">
			<stop
   id="stop328"
   style="stop-color:#FFB375"
   offset="0" />
			<stop
   id="stop330"
   style="stop-color:#F2C97A"
   offset="1" />
		</linearGradient>
		<path
   id="path333"
   d="m 462.187,336.089 -11.001,12.61 -63.205,59.089 -2.219,-22.214 c -0.063,-4.756 -1.096,-20.448 -1.442,-23.96 -2.237,-22.715 -2.238,-37.545 -1.709,-54.035 2.103,-0.906 4.258,-1.78 6.318,-2.622 -3.59,1.188 -16.489,4.707 -21.039,11.675 -2.054,8.107 -5.936,33.507 -5.85,39.992 1.081,12.43 12.43,90.255 12.43,90.255 l 8.227,7.43 71.887,-93.994 h 7.206 l 9.628,-7.429 4.98,-4.907 3.957,-0.361 0.956,-9.376 -2.908,-1.977 4.122,-1.619 5.401,-0.179 0.55,-2.629 -8.524,-0.886 z"
   style="fill:url(#SVGID_21_)" />
		<path
   id="path335"
   d="m 479.524,336.045 c -1.167,-0.355 -2.352,-0.664 -3.532,-0.983 -2.448,5.636 -3.509,11.717 -4.555,17.811 l 4.601,-4.534 3.957,-0.36 0.956,-9.376 -2.908,-1.977 z"
   style="fill:#dbb878" />
		<polygon
   id="polygon337"
   points="501.881,286.503 498.638,286.638 486.613,350.41 488.506,351.041 "
   style="fill:#dcdcdc" />
	</g>
</g>
</svg>